<?xml version="1.0" encoding="UTF-8"?> <svg xmlns="http://www.w3.org/2000/svg" width="131.234" height="101.673" viewBox="0 0 131.234 101.673"><g id="Group_19527" data-name="Group 19527" transform="translate(-3011.389 997.328)"><g id="Group_19524" data-name="Group 19524"><path id="Path_9180" data-name="Path 9180" d="M3040.208-900.083h-28.818v-4.6H3035.6v-49.241h-24.214v-4.6h28.818Z" fill="#7267d7"></path><rect id="Rectangle_2074" data-name="Rectangle 2074" width="4.604" height="4.604" transform="translate(3026.393 -915.116)" fill="#7267d7"></rect></g><path id="Path_9181" data-name="Path 9181" d="M3047.079-945.8a30.234,30.234,0,0,1,8.51,1.22,30.306,30.306,0,0,1,7.825,3.559l10.573,6.767H3104.3a5.774,5.774,0,0,1,5.772,5.773,5.742,5.742,0,0,1-1.941,4.319l21.742-13.535a43.609,43.609,0,0,0,2.987-15.884,43.747,43.747,0,0,0-43.744-43.744,43.747,43.747,0,0,0-43.744,43.744,43.929,43.929,0,0,0,.7,7.781Z" fill="#5dbcaa"></path><g id="Group_19525" data-name="Group 19525"><rect id="Rectangle_2075" data-name="Rectangle 2075" width="9.431" height="33.683" transform="translate(3091.268 -967.94)" fill="#fff"></rect><path id="Path_9182" data-name="Path 9182" d="M3110.068-928.484a5.744,5.744,0,0,1-1.141,3.45h.6l4.914-3.06v-48.513H3105v42.4A5.772,5.772,0,0,1,3110.068-928.484Z" fill="#fff"></path><path id="Path_9183" data-name="Path 9183" d="M3073.22-934.748V-950.61h-9.433v9.824Z" fill="#fff"></path><rect id="Rectangle_2076" data-name="Rectangle 2076" width="9.429" height="25.02" transform="translate(3077.528 -959.277)" fill="#fff"></rect></g><g id="Group_19526" data-name="Group 19526"><path id="Path_9184" data-name="Path 9184" d="M3086.724-895.655a16.594,16.594,0,0,1-5.825-1.057l-34.418-13.8h-8.576v-4.605h9.465l35.191,14.11a11.988,11.988,0,0,0,5.44.68,12.024,12.024,0,0,0,5.229-1.815l43.333-28.394a3.579,3.579,0,0,0,1.413-2.36,3.579,3.579,0,0,0-.689-2.71l-.069-.092a3.6,3.6,0,0,0-2.22-1.371,3.619,3.619,0,0,0-2.565.485l-23.089,14.372-2.433-3.909L3130-940.493a8.2,8.2,0,0,1,5.836-1.1,8.2,8.2,0,0,1,5.055,3.122l.07.094a8.141,8.141,0,0,1,1.568,6.167,8.141,8.141,0,0,1-3.306,5.435l-.087.06-43.413,28.446a16.631,16.631,0,0,1-7.246,2.525A16.97,16.97,0,0,1,3086.724-895.655Z" fill="#7267d7"></path><path id="Path_9185" data-name="Path 9185" d="M3070.516-916.938h-4.605a8.085,8.085,0,0,1,8.076-8.075H3104.3a3.475,3.475,0,0,0,3.47-3.471,3.475,3.475,0,0,0-3.47-3.471h-30.983l-11.14-7.13a28.015,28.015,0,0,0-7.231-3.289,27.988,27.988,0,0,0-7.863-1.127h-9.174v-4.605h9.174a32.559,32.559,0,0,1,9.157,1.313,32.6,32.6,0,0,1,8.418,3.83l10.007,6.4H3104.3a8.084,8.084,0,0,1,8.074,8.076,8.084,8.084,0,0,1-8.074,8.076h-30.309A3.474,3.474,0,0,0,3070.516-916.938Z" fill="#7267d7"></path></g></g></svg> 