<?xml version="1.0" encoding="UTF-8"?> <svg xmlns="http://www.w3.org/2000/svg" width="61.599" height="98.36" viewBox="0 0 61.599 98.36"><g id="Group_19547" data-name="Group 19547" transform="translate(-6706.144 173.685)"><rect id="Rectangle_2090" data-name="Rectangle 2090" width="55.998" height="14" transform="translate(6708.944 -92.124)" fill="#ada6d2"></rect><path id="Path_9209" data-name="Path 9209" d="M6767.742,28.4h-61.6v-61.6h61.6Zm-56-5.6h50.4v-50.4h-50.4Z" transform="translate(0 -103.727)" fill="#64539f"></path><path id="Path_9210" data-name="Path 9210" d="M6787.121-131.321H6746.8v-22.205a20.013,20.013,0,0,1,5.905-14.252,20.025,20.025,0,0,1,14.254-5.907,20.029,20.029,0,0,1,14.255,5.907,20.016,20.016,0,0,1,5.9,14.252Zm-34.719-5.6h29.119v-16.605a14.451,14.451,0,0,0-4.266-10.294,14.459,14.459,0,0,0-10.293-4.265,14.46,14.46,0,0,0-10.293,4.265,14.462,14.462,0,0,0-4.267,10.294Z" transform="translate(-30.019 0)" fill="#64539f"></path><g id="Group_19546" data-name="Group 19546" transform="translate(6725.519 -121.31)"><path id="Path_9211" data-name="Path 9211" d="M6781.86,36.192a5.7,5.7,0,1,1,8.049-8.061l1.7,1.7,1.7-1.7a5.7,5.7,0,1,1,8.055,8.054l-9.756,9.756Z" transform="translate(-6780.185 -26.462)" fill="#54b8a8"></path></g></g></svg> 