<?xml version="1.0" encoding="UTF-8"?> <svg xmlns="http://www.w3.org/2000/svg" xmlns:xlink="http://www.w3.org/1999/xlink" width="76.792" height="89.504" viewBox="0 0 76.792 89.504"><defs><radialGradient id="radial-gradient" cx="0.52" cy="-0.056" r="1.247" gradientTransform="translate(0.146) scale(0.708 1)" gradientUnits="objectBoundingBox"><stop offset="0" stop-color="#9799f1"></stop><stop offset="1" stop-color="#6251cc"></stop></radialGradient></defs><g id="Group_85" data-name="Group 85" transform="translate(-4953.221 -1245.429)"><g id="Rectangle_1104" data-name="Rectangle 1104" transform="translate(4969.322 1245.429)" fill="none" stroke="#e4e4e4" stroke-miterlimit="10" stroke-width="11"><rect width="44.592" height="89.504" rx="22.296" stroke="none"></rect><rect x="5.5" y="5.5" width="33.592" height="78.504" rx="16.796" fill="none"></rect></g><rect id="Rectangle_1105" data-name="Rectangle 1105" width="76.792" height="54.366" transform="translate(4953.221 1280.568)" fill="url(#radial-gradient)"></rect><g id="Group_19752" data-name="Group 19752" transform="translate(-405.891 2025.384)"><path id="Path_9247" data-name="Path 9247" d="M5397.508-711.262a10.073,10.073,0,0,1-10.061-10.061,10.071,10.071,0,0,1,10.061-10.06,10.07,10.07,0,0,1,10.06,10.06A10.072,10.072,0,0,1,5397.508-711.262Zm0-13.414a3.357,3.357,0,0,0-3.354,3.353,3.357,3.357,0,0,0,3.354,3.354,3.357,3.357,0,0,0,3.354-3.354A3.357,3.357,0,0,0,5397.508-724.676Z" transform="translate(0 0)" fill="#fff"></path><rect id="Rectangle_2233" data-name="Rectangle 2233" width="6.707" height="10.731" transform="translate(5394.154 -714.615)" fill="#fff"></rect></g></g></svg> 